<?xml version="1.0" encoding="UTF-8"?>
<svg width="18px" height="18px" viewBox="0 0 18 18" version="1.1" xmlns="http://www.w3.org/2000/svg" xmlns:xlink="http://www.w3.org/1999/xlink">
    <!-- Generator: sketchtool 53 (72520) - https://sketchapp.com -->
    <title>80EC6CE5-E271-441D-B198-3B664095B11B</title>
    <desc>Created with sketchtool.</desc>
    <g id="Mailchimp" stroke="none" stroke-width="1" fill="none" fill-rule="evenodd">
        <g transform="translate(-380.000000, -279.000000)" id="Info-Copy-6">
            <g transform="translate(380.000000, 279.000000)">
                <circle id="Oval" fill="#5950FF" cx="9" cy="9" r="9"></circle>
                <path d="M8.79001221,4.995 C8.51001081,4.995 8.27001321,4.89750098 8.07001221,4.7025 C7.87001121,4.50749903 7.77001221,4.2700014 7.77001221,3.99 C7.77001221,3.7099986 7.86751123,3.47500095 8.06251221,3.285 C8.25751318,3.09499905 8.50001076,3 8.79001221,3 C9.06001356,3 9.29001126,3.09499905 9.48001221,3.285 C9.67001316,3.47500095 9.76501221,3.7099986 9.76501221,3.99 C9.76501221,4.2700014 9.67001316,4.50749903 9.48001221,4.7025 C9.29001126,4.89750098 9.06001356,4.995 8.79001221,4.995 Z M7.20001221,14.505 L7.20001221,14.205 L8.25001221,14.055 L8.25001221,7.2 L7.20001221,7.05 L7.20001221,6.75 L9.75001221,6.75 L9.75001221,14.055 L10.8000122,14.205 L10.8000122,14.505 L7.20001221,14.505 Z" id="i" fill="#FFFFFF"></path>
            </g>
        </g>
    </g>
</svg>