<svg xmlns="http://www.w3.org/2000/svg" viewBox="0 0 43.37 46.19"><defs><style>.cls-1{opacity:0.3;}.cls-2{fill:#333;}.cls-3{fill:#ffdf1b;}.cls-4{fill:#211e27;}</style></defs><title>1Asset 9</title><g id="Layer_2" data-name="Layer 2"><g id="Layer_1-2" data-name="Layer 1"><g class="cls-1"><path class="cls-2" d="M31.93,12.47v-.09a3.77,3.77,0,0,0-2.26-1.73,2.87,2.87,0,0,1,.44.6,8,8,0,0,0-2.44-1l.09.09a2.13,2.13,0,0,1,.52.69,5.38,5.38,0,0,0-2.87-.34h.09a1.7,1.7,0,0,1,1,.52,6.77,6.77,0,0,0-4.09.52h.18a3.24,3.24,0,0,1,1.3.26,10.07,10.07,0,0,0-3.13,1.3,4.87,4.87,0,0,1,1.22-.08,17.38,17.38,0,0,0-6,6,19.5,19.5,0,0,1,5-4.52C25.59,11.6,30.28,11.25,31.93,12.47Z"/><path class="cls-2" d="M14.38,30.89a8.67,8.67,0,0,0-.44-2.95s-.17.61-.43,1.3c-.26-2.26-1.22-2.69-1.22-2.69a5.73,5.73,0,0,0-1.74-.35,4.54,4.54,0,0,0-4.34,4.61,4.47,4.47,0,0,0,4.34,4.6,4.51,4.51,0,0,0,4.35-5.47A5.53,5.53,0,0,1,14.38,30.89Zm-4.26-2.34c-.18.09-.09,0-.26.09H9.77c-.09,0-.09.08-.17.08a1.39,1.39,0,0,0-.7.52A2.59,2.59,0,0,0,8.38,31c.09.52.26.87.26,1,.17.26-.17.35-.43,0a3.13,3.13,0,0,1-.44-1,2.78,2.78,0,0,1,1.74-3.21.31.31,0,0,1,.26-.09,2,2,0,0,1,1.13-.09,2.47,2.47,0,0,1,1.39.79,1.59,1.59,0,0,1,.43,1c0,.17,0,.34-.17.43a.11.11,0,0,1-.17,0c-.09-.09,0-.26-.26-.61A1.91,1.91,0,0,0,10.12,28.55Zm1.47,5c-.69.09-1-.35-.95-.44h.26a1.15,1.15,0,0,0,1.48-.86v-.53c-.09-.52-.7-.6-1.13-1a.82.82,0,0,1-.09-1.13c.35-.26.7-.17.7-.09s-.09.09-.18.18-.17.17-.17.35.08.17.17.26c.35.26,1.31.43,1.39,1.3A1.63,1.63,0,0,1,11.59,33.59Z"/><path class="cls-2" d="M8.12,25.33H8c1.48-5.12,5.39-10.42,9.47-13.9,1.05-.87,3.05-2.26,3.05-2.26l-2.26-2L18.11,6l3.13,2.61c-.17.09-.26.26-.43.35-.35.26-.61.6-1,.86-.52.44-1,.87-1.39,1.31-1,1-1.91,2.08-2.78,3.21a24.07,24.07,0,0,0-3.22,4.7c0,.08,5.39-6.43,6.7-7.74a55.48,55.48,0,0,1,6.51-5.21A14.5,14.5,0,0,1,30,4.22a14.85,14.85,0,0,0-5.65,2.17c-.09,0-2.43-2-2.43-2l-.87.35C17.85,4,10.81,9.26,6.64,16c-1.74,2.78-4.08,7.47-2.78,9.82A5.5,5.5,0,0,0,6,27.25,7.16,7.16,0,0,1,8.12,25.33ZM23.5,6.91a4,4,0,0,0-.61.43l-.34-1.21ZM21,4.74l.52,1.74-.61-.18-.17-.69Zm1.48,2.87c-.26.17-.44.34-.7.52L20.46,7Z"/><path class="cls-2" d="M41.05,31.24a2,2,0,0,0-.6.09,5.65,5.65,0,0,0-.7-2.61,12.64,12.64,0,0,1-3.91,2.7,19.21,19.21,0,0,1-7.13,1.65c-.86,0-1.39-.09-1.65.87a.33.33,0,0,0-.08.26c3.21,1,8.34-1,8.86-1.05h.09c.26.09-2.78,2-7,2A10.66,10.66,0,0,1,27.06,35a2,2,0,0,0,1.65,1.3,4.88,4.88,0,0,0,1.22.18c5.91.17,10.78-4.35,11-4.61l-.09.17c-.87,2-5.91,5.48-10.86,5.39a4.47,4.47,0,0,1-3.3-1.21c-1.13-1.39-.52-3.74,1.3-3.83h.61a15.42,15.42,0,0,0,11.56-5.3c.35-.52-.09-1.22-1-1.22a8.92,8.92,0,0,0-2.78-1.91c-1.65-.87-1.48-.17-1.91-4.34-.09-1.13-.35-2.7-1.3-3.31a1.72,1.72,0,0,0-.87-.26,1.74,1.74,0,0,0-.52.09,2.37,2.37,0,0,0-1.22.78c-1.83,1.65-3.3,1.22-5.47,1.22a4.28,4.28,0,0,0-4.18,3.65A7.42,7.42,0,0,0,21,24.64a3.84,3.84,0,0,1-.78-.7,5.88,5.88,0,0,0,2.17,3.31h-.69a7.14,7.14,0,0,0,1.91,1.13,7.12,7.12,0,0,0-2.09,2.95,7.27,7.27,0,0,0-.35,3.3l.53-.78a7.41,7.41,0,0,0,.34,3.3c.26-.43.7-1.3.7-1.3a6.42,6.42,0,0,0,.78,3.21,11.36,11.36,0,0,0,.17-1.21,7.12,7.12,0,0,0,1.66,2.6c2.17,1.92,7.82,2.26,12.08-1.13a11.24,11.24,0,0,0,4.08-6C42.27,32.29,42.1,31.33,41.05,31.24Zm-7-6.77c0,.33-.28.57-.52.53s-.39-.33-.34-.67.29-.57.53-.53A.54.54,0,0,1,34.05,24.47Zm-1.6-4.09c.52-.17,1.22,1.13,1.22,2.35a3.51,3.51,0,0,0-1.39-.26,2.35,2.35,0,0,1-.18-1.14C32.1,21,32.1,20.47,32.45,20.38ZM31,24.75a.63.63,0,0,1,.86-.12.62.62,0,0,1,.36.79A.72.72,0,0,1,31,24.75Zm-6.51-.37c-.35.08-.61.17-.7.17s0-.35.44-.69a2.87,2.87,0,0,1,2.86-.53,2.06,2.06,0,0,1,1.13.79.41.41,0,0,1,.09.26c0,.08-.26,0-.69-.18A3.38,3.38,0,0,0,24.46,24.38Zm.95,1.3c-.08-.09,0-.26.18-.43a2.08,2.08,0,0,1,.6-.35h.09c.18,0,.26-.09.35-.09,1-.09,1.56.35,1.48.52h-.44a5.08,5.08,0,0,0-1.82.26C25.59,25.68,25.5,25.77,25.41,25.68Z"/><path class="cls-2" d="M43.23,31.16a2.25,2.25,0,0,0-1.57-1.22,9.34,9.34,0,0,0-.61-1.74c.09-.17.27-.26.27-.35a2.16,2.16,0,0,0-1.4-3.47,7.89,7.89,0,0,0-2.6-1.74,10.05,10.05,0,0,1-1-.52c-.18-.87-.27-2.78-.53-4.17a4.51,4.51,0,0,0-1.47-2.7,6.83,6.83,0,0,0-1.22-1.82c2.43-3.65,3-7.3,1.3-9.21A4.2,4.2,0,0,0,31.06,3a13.58,13.58,0,0,0-6.78,2.26S22.72,4,22.63,4c-6.78-5.3-26,18.25-19.2,23.38l1.74,1.31a6.12,6.12,0,0,0,3.64,7.82,6.52,6.52,0,0,0,2.26.34s5.13,9.39,16,9.39c12.52,0,15.73-12.25,15.73-12.34C42.71,33.94,43.75,32.37,43.23,31.16ZM3.86,25.77c-1.3-2.35,1-7,2.78-9.82C10.81,9.26,17.85,4,21.07,4.74l.87-.35s2.34,2,2.43,2A14.85,14.85,0,0,1,30,4.22a14.5,14.5,0,0,0-4.35,1.91,55.48,55.48,0,0,0-6.51,5.21c-1.31,1.31-6.7,7.82-6.7,7.74a24.07,24.07,0,0,1,3.22-4.7c.87-1.13,1.82-2.17,2.78-3.21.43-.44.87-.87,1.39-1.31.35-.26.61-.6,1-.86.17-.09.26-.26.43-.35L18.11,6l.18,1.13,2.26,2s-2,1.39-3.05,2.26c-4.08,3.48-8,8.78-9.47,13.9h.09A7.16,7.16,0,0,0,6,27.25,5.5,5.5,0,0,1,3.86,25.77Zm6.69,9.64a4.47,4.47,0,0,1-4.34-4.6,4.54,4.54,0,0,1,4.34-4.61,5.73,5.73,0,0,1,1.74.35s1,.43,1.22,2.69c.26-.69.43-1.3.43-1.3a8.67,8.67,0,0,1,.44,2.95,5.53,5.53,0,0,0,.52-.95A4.51,4.51,0,0,1,10.55,35.41Zm5.39-16.25a17.38,17.38,0,0,1,6-6,4.87,4.87,0,0,0-1.22.08A10.07,10.07,0,0,1,23.85,12a3.24,3.24,0,0,0-1.3-.26h-.18a6.77,6.77,0,0,1,4.09-.52,1.7,1.7,0,0,0-1-.52h-.09a5.38,5.38,0,0,1,2.87.34,2.13,2.13,0,0,0-.52-.69l-.09-.09a8,8,0,0,1,2.44,1,2.87,2.87,0,0,0-.44-.6,3.77,3.77,0,0,1,2.26,1.73v.09c-1.65-1.22-6.34-.87-11,2.17A19.5,19.5,0,0,0,15.94,19.16ZM41.49,33.33a11.24,11.24,0,0,1-4.08,6c-4.26,3.39-9.91,3-12.08,1.13a7.12,7.12,0,0,1-1.66-2.6,11.36,11.36,0,0,1-.17,1.21,6.42,6.42,0,0,1-.78-3.21s-.44.87-.7,1.3a7.41,7.41,0,0,1-.34-3.3l-.53.78a7.27,7.27,0,0,1,.35-3.3,7.12,7.12,0,0,1,2.09-2.95,7.14,7.14,0,0,1-1.91-1.13h.69a5.88,5.88,0,0,1-2.17-3.31,3.84,3.84,0,0,0,.78.7,7.42,7.42,0,0,1-.09-2.87,4.28,4.28,0,0,1,4.18-3.65c2.17,0,3.64.43,5.47-1.22a2.37,2.37,0,0,1,1.22-.78,1.74,1.74,0,0,1,.52-.09,1.72,1.72,0,0,1,.87.26c1,.61,1.21,2.18,1.3,3.31.43,4.17.26,3.47,1.91,4.34a8.92,8.92,0,0,1,2.78,1.91c.87,0,1.31.7,1,1.22a15.42,15.42,0,0,1-11.56,5.3h-.61c-1.82.09-2.43,2.44-1.3,3.83a4.47,4.47,0,0,0,3.3,1.21c5,.09,10-3.39,10.86-5.39l.09-.17c-.17.26-5,4.78-11,4.61a4.88,4.88,0,0,1-1.22-.18A2,2,0,0,1,27.06,35a10.66,10.66,0,0,0,1.83.17c4.26,0,7.3-1.91,7-2h-.09c-.52.09-5.65,2.09-8.86,1.05a.33.33,0,0,1,.08-.26c.26-1,.79-.87,1.65-.87a19.21,19.21,0,0,0,7.13-1.65,12.64,12.64,0,0,0,3.91-2.7,5.65,5.65,0,0,1,.7,2.61,2,2,0,0,1,.6-.09C42.1,31.33,42.27,32.29,41.49,33.33Z"/><polygon class="cls-2" points="21.5 6.48 20.98 4.74 20.72 5.61 20.89 6.3 21.5 6.48"/><path class="cls-2" d="M23.5,6.91l-.95-.78.34,1.21A4,4,0,0,1,23.5,6.91Z"/><path class="cls-2" d="M33.67,22.73c0-1.22-.7-2.52-1.22-2.35-.35.09-.35.61-.35.95a2.35,2.35,0,0,0,.18,1.14A3.51,3.51,0,0,1,33.67,22.73Z"/><path class="cls-2" d="M22.46,7.61l-2-.61,1.3,1.13C22,8,22.2,7.78,22.46,7.61Z"/><path class="cls-2" d="M27.59,24.2c.43.18.69.26.69.18a.41.41,0,0,0-.09-.26,2.06,2.06,0,0,0-1.13-.79,2.87,2.87,0,0,0-2.86.53c-.44.34-.61.69-.44.69s.35-.09.7-.17A3.38,3.38,0,0,1,27.59,24.2Z"/><path class="cls-2" d="M28.11,25.33c.08-.17-.52-.61-1.48-.52-.09,0-.17.09-.35.09h-.09a2.08,2.08,0,0,0-.6.35c-.18.17-.26.34-.18.43s.18,0,.44-.09a5.08,5.08,0,0,1,1.82-.26Z"/><path class="cls-2" d="M12.12,29.24c.26.35.17.52.26.61a.11.11,0,0,0,.17,0c.17-.09.17-.26.17-.43a1.59,1.59,0,0,0-.43-1,2.47,2.47,0,0,0-1.39-.79,2,2,0,0,0-1.13.09.31.31,0,0,0-.26.09A2.78,2.78,0,0,0,7.77,31a3.13,3.13,0,0,0,.44,1c.26.35.6.26.43,0,0-.09-.17-.44-.26-1a2.59,2.59,0,0,1,.52-1.74,1.39,1.39,0,0,1,.7-.52c.08,0,.08-.08.17-.08h.09c.17-.09.08,0,.26-.09A1.91,1.91,0,0,1,12.12,29.24Z"/><path class="cls-2" d="M11.68,30.29c-.09-.09-.17-.18-.17-.26s0-.27.17-.35.18-.09.18-.18-.35-.17-.7.09a.82.82,0,0,0,.09,1.13c.43.44,1,.52,1.13,1v.53a1.15,1.15,0,0,1-1.48.86h-.26c-.09.09.26.53.95.44a1.63,1.63,0,0,0,1.48-2C13,30.72,12,30.55,11.68,30.29Z"/><path class="cls-2" d="M33.19,24.33c0,.34.1.64.34.67s.47-.2.52-.53a.54.54,0,0,0-.33-.67C33.48,23.76,33.25,24,33.19,24.33Z"/><path class="cls-2" d="M31.33,25.55a.63.63,0,0,0,.86-.13.62.62,0,0,0-.36-.79.55.55,0,1,0-.5.92Z"/></g><path class="cls-3" d="M29.93,9.47V9.38a3.77,3.77,0,0,0-2.26-1.73,2.87,2.87,0,0,1,.44.6,8,8,0,0,0-2.44-1l.09.09a2.13,2.13,0,0,1,.52.69,5.38,5.38,0,0,0-2.87-.34h.09a1.7,1.7,0,0,1,1,.52,6.77,6.77,0,0,0-4.09.52h.18a3.24,3.24,0,0,1,1.3.26,10.07,10.07,0,0,0-3.13,1.3,4.87,4.87,0,0,1,1.22-.08,17.38,17.38,0,0,0-6,6,19.5,19.5,0,0,1,5-4.52C23.59,8.6,28.28,8.25,29.93,9.47Z"/><path class="cls-3" d="M12.38,27.89a8.67,8.67,0,0,0-.44-2.95s-.17.61-.43,1.3c-.26-2.26-1.22-2.69-1.22-2.69a5.73,5.73,0,0,0-1.74-.35,4.54,4.54,0,0,0-4.34,4.61,4.47,4.47,0,0,0,4.34,4.6,4.51,4.51,0,0,0,4.35-5.47A5.53,5.53,0,0,1,12.38,27.89ZM8.12,25.55c-.18.09-.09,0-.26.09H7.77c-.09,0-.09.08-.17.08a1.39,1.39,0,0,0-.7.52A2.59,2.59,0,0,0,6.38,28c.09.52.26.87.26,1,.17.26-.17.35-.43,0a3.13,3.13,0,0,1-.44-1,2.78,2.78,0,0,1,1.74-3.21.31.31,0,0,1,.26-.09,2,2,0,0,1,1.13-.09,2.47,2.47,0,0,1,1.39.79,1.59,1.59,0,0,1,.43,1c0,.17,0,.34-.17.43a.11.11,0,0,1-.17,0c-.09-.09,0-.26-.26-.61A1.91,1.91,0,0,0,8.12,25.55Zm1.47,5c-.69.09-1-.35-.95-.44H8.9a1.15,1.15,0,0,0,1.48-.86v-.53c-.09-.52-.7-.6-1.13-1a.82.82,0,0,1-.09-1.13c.35-.26.7-.17.7-.09s-.09.09-.18.18-.17.17-.17.35.08.17.17.26c.35.26,1.31.43,1.39,1.3A1.63,1.63,0,0,1,9.59,30.59Z"/><path class="cls-3" d="M6.12,22.33H6c1.48-5.12,5.39-10.42,9.47-13.9,1.05-.87,3.05-2.26,3.05-2.26l-2.26-2L16.11,3l3.13,2.61c-.17.09-.26.26-.43.35-.35.26-.61.6-1,.86-.52.44-1,.87-1.39,1.31-1,1-1.91,2.08-2.78,3.21a24.07,24.07,0,0,0-3.22,4.7c0,.08,5.39-6.43,6.7-7.74a55.48,55.48,0,0,1,6.51-5.21A14.5,14.5,0,0,1,28,1.22a14.85,14.85,0,0,0-5.65,2.17c-.09,0-2.43-2-2.43-2l-.87.35C15.85,1,8.81,6.26,4.64,13,2.9,15.73.56,20.42,1.86,22.77A5.5,5.5,0,0,0,4,24.25,7.16,7.16,0,0,1,6.12,22.33ZM21.5,3.91a4,4,0,0,0-.61.43l-.34-1.21ZM19,1.74l.52,1.74-.61-.18-.17-.69Zm1.48,2.87c-.26.17-.44.34-.7.52L18.46,4Z"/><path class="cls-3" d="M39.05,28.24a2,2,0,0,0-.6.09,5.65,5.65,0,0,0-.7-2.61,12.64,12.64,0,0,1-3.91,2.7,19.21,19.21,0,0,1-7.13,1.65c-.86,0-1.39-.09-1.65.87a.33.33,0,0,0-.08.26c3.21,1,8.34-1,8.86-1.05h.09c.26.09-2.78,2-7,2A10.66,10.66,0,0,1,25.06,32a2,2,0,0,0,1.65,1.3,4.88,4.88,0,0,0,1.22.18c5.91.17,10.78-4.35,11-4.61l-.09.17c-.87,2-5.91,5.48-10.86,5.39a4.47,4.47,0,0,1-3.3-1.21c-1.13-1.39-.52-3.74,1.3-3.83h.61a15.42,15.42,0,0,0,11.56-5.3c.35-.52-.09-1.22-1-1.22a8.92,8.92,0,0,0-2.78-1.91c-1.65-.87-1.48-.17-1.91-4.34-.09-1.13-.35-2.7-1.3-3.31a1.72,1.72,0,0,0-.87-.26,1.74,1.74,0,0,0-.52.09,2.37,2.37,0,0,0-1.22.78c-1.83,1.65-3.3,1.22-5.47,1.22a4.28,4.28,0,0,0-4.18,3.65A7.42,7.42,0,0,0,19,21.64a3.84,3.84,0,0,1-.78-.7,5.88,5.88,0,0,0,2.17,3.31h-.69a7.14,7.14,0,0,0,1.91,1.13,7.12,7.12,0,0,0-2.09,2.95,7.27,7.27,0,0,0-.35,3.3l.53-.78a7.41,7.41,0,0,0,.34,3.3c.26-.43.7-1.3.7-1.3a6.42,6.42,0,0,0,.78,3.21,11.36,11.36,0,0,0,.17-1.21,7.12,7.12,0,0,0,1.66,2.6c2.17,1.92,7.82,2.26,12.08-1.13a11.24,11.24,0,0,0,4.08-6C40.27,29.29,40.1,28.33,39.05,28.24Zm-7-6.77c0,.33-.28.57-.52.53s-.39-.33-.34-.67.29-.57.53-.53A.54.54,0,0,1,32.05,21.47Zm-1.6-4.09c.52-.17,1.22,1.13,1.22,2.35a3.51,3.51,0,0,0-1.39-.26,2.35,2.35,0,0,1-.18-1.14C30.1,18,30.1,17.47,30.45,17.38ZM29,21.75a.63.63,0,0,1,.86-.12.62.62,0,0,1,.36.79A.72.72,0,0,1,29,21.75Zm-6.51-.37c-.35.08-.61.17-.7.17s0-.35.44-.69a2.87,2.87,0,0,1,2.86-.53,2.06,2.06,0,0,1,1.13.79.41.41,0,0,1,.09.26c0,.08-.26,0-.69-.18A3.38,3.38,0,0,0,22.46,21.38Zm.95,1.3c-.08-.09,0-.26.18-.43a2.08,2.08,0,0,1,.6-.35h.09c.18,0,.26-.09.35-.09,1-.09,1.56.35,1.48.52h-.44a5.08,5.08,0,0,0-1.82.26C23.59,22.68,23.5,22.77,23.41,22.68Z"/><path class="cls-4" d="M41.23,28.16a2.25,2.25,0,0,0-1.57-1.22,9.34,9.34,0,0,0-.61-1.74c.09-.17.27-.26.27-.35a2.16,2.16,0,0,0-1.4-3.47,7.89,7.89,0,0,0-2.6-1.74,10.05,10.05,0,0,1-1-.52c-.18-.87-.27-2.78-.53-4.17a4.51,4.51,0,0,0-1.47-2.7,6.83,6.83,0,0,0-1.22-1.82c2.43-3.65,3-7.3,1.3-9.21A4.2,4.2,0,0,0,29.06,0a13.58,13.58,0,0,0-6.78,2.26S20.72,1,20.63,1c-6.78-5.3-26,18.25-19.2,23.38l1.74,1.31a6.12,6.12,0,0,0,3.64,7.82,6.52,6.52,0,0,0,2.26.34s5.13,9.39,16,9.39c12.52,0,15.73-12.25,15.73-12.34C40.71,30.94,41.75,29.37,41.23,28.16ZM1.86,22.77c-1.3-2.35,1-7,2.78-9.82C8.81,6.26,15.85,1,19.07,1.74l.87-.35s2.34,2,2.43,2A14.85,14.85,0,0,1,28,1.22a14.5,14.5,0,0,0-4.35,1.91,55.48,55.48,0,0,0-6.51,5.21c-1.31,1.31-6.7,7.82-6.7,7.74a24.07,24.07,0,0,1,3.22-4.7c.87-1.13,1.82-2.17,2.78-3.21.43-.44.87-.87,1.39-1.31.35-.26.61-.6,1-.86.17-.09.26-.26.43-.35h0L16.11,3l.18,1.13,2.26,2s-2,1.39-3.05,2.26c-4.08,3.48-8,8.78-9.47,13.9h.09A7.16,7.16,0,0,0,4,24.25,5.5,5.5,0,0,1,1.86,22.77Zm6.69,9.64a4.47,4.47,0,0,1-4.34-4.6A4.54,4.54,0,0,1,8.55,23.2a5.73,5.73,0,0,1,1.74.35s1,.43,1.22,2.69h0c.26-.69.43-1.3.43-1.3a8.67,8.67,0,0,1,.44,2.95h0a5.53,5.53,0,0,0,.52-.95A4.51,4.51,0,0,1,8.55,32.41Zm5.39-16.25h0a17.38,17.38,0,0,1,6-6,4.87,4.87,0,0,0-1.22.08A10.07,10.07,0,0,1,21.85,9a3.24,3.24,0,0,0-1.3-.26h-.18a6.77,6.77,0,0,1,4.09-.52,1.7,1.7,0,0,0-1-.52h-.09A5.38,5.38,0,0,1,26.28,8a2.13,2.13,0,0,0-.52-.69l-.09-.09a8,8,0,0,1,2.44,1,2.87,2.87,0,0,0-.44-.6,3.77,3.77,0,0,1,2.26,1.73h0v.09h0c-1.65-1.22-6.34-.87-11,2.17A19.5,19.5,0,0,0,13.94,16.16ZM39.49,30.33a11.24,11.24,0,0,1-4.08,6c-4.26,3.39-9.91,3-12.08,1.13a7.12,7.12,0,0,1-1.66-2.6,11.36,11.36,0,0,1-.17,1.21,6.42,6.42,0,0,1-.78-3.21s-.44.87-.7,1.3a7.41,7.41,0,0,1-.34-3.3l-.53.78a7.27,7.27,0,0,1,.35-3.3,7.12,7.12,0,0,1,2.09-2.95,7.14,7.14,0,0,1-1.91-1.13h.69a5.88,5.88,0,0,1-2.17-3.31,3.84,3.84,0,0,0,.78.7,7.42,7.42,0,0,1-.09-2.87h0a4.28,4.28,0,0,1,4.18-3.65c2.17,0,3.64.43,5.47-1.22a2.37,2.37,0,0,1,1.22-.78,1.74,1.74,0,0,1,.52-.09,1.72,1.72,0,0,1,.87.26c1,.61,1.21,2.18,1.3,3.31.43,4.17.26,3.47,1.91,4.34a8.92,8.92,0,0,1,2.78,1.91h0c.87,0,1.31.7,1,1.22a15.42,15.42,0,0,1-11.56,5.3h-.61c-1.82.09-2.43,2.44-1.3,3.83a4.47,4.47,0,0,0,3.3,1.21h0c5,.09,10-3.39,10.86-5.39l.09-.17c-.17.26-5,4.78-11,4.61a4.88,4.88,0,0,1-1.22-.18A2,2,0,0,1,25.06,32a10.66,10.66,0,0,0,1.83.17c4.26,0,7.3-1.91,7-2h-.09c-.52.09-5.65,2.09-8.86,1.05a.33.33,0,0,1,.08-.26c.26-1,.79-.87,1.65-.87h0a19.21,19.21,0,0,0,7.13-1.65,12.64,12.64,0,0,0,3.91-2.7,5.65,5.65,0,0,1,.7,2.61,2,2,0,0,1,.6-.09C40.1,28.33,40.27,29.29,39.49,30.33Z"/><polygon class="cls-4" points="18.89 3.3 19.5 3.48 18.98 1.74 18.72 2.61 18.89 3.3"/><path class="cls-4" d="M21.5,3.91l-.95-.78.34,1.21A4,4,0,0,1,21.5,3.91Z"/><path class="cls-4" d="M30.28,19.47a3.51,3.51,0,0,1,1.39.26c0-1.22-.7-2.52-1.22-2.35h0c-.35.09-.35.61-.35.95A2.35,2.35,0,0,0,30.28,19.47Z"/><path class="cls-4" d="M20.46,4.61l-2-.61,1.3,1.13C20,5,20.2,4.78,20.46,4.61Z"/><path class="cls-4" d="M25.59,21.2c.43.18.69.26.69.18a.41.41,0,0,0-.09-.26,2.06,2.06,0,0,0-1.13-.79,2.87,2.87,0,0,0-2.86.53c-.44.34-.61.69-.44.69s.35-.09.7-.17A3.38,3.38,0,0,1,25.59,21.2Z"/><path class="cls-4" d="M25.67,22.33h.44c.08-.17-.52-.61-1.48-.52-.09,0-.17.09-.35.09h-.09a2.08,2.08,0,0,0-.6.35c-.18.17-.26.34-.18.43s.18,0,.44-.09A5.08,5.08,0,0,1,25.67,22.33Z"/><path class="cls-4" d="M10.12,26.24c.26.35.17.52.26.61a.11.11,0,0,0,.17,0c.17-.09.17-.26.17-.43h0a1.59,1.59,0,0,0-.43-1h0a2.47,2.47,0,0,0-1.39-.79,2,2,0,0,0-1.13.09h0a.31.31,0,0,0-.26.09A2.78,2.78,0,0,0,5.77,28a3.13,3.13,0,0,0,.44,1h0c.26.35.6.26.43,0,0-.09-.17-.44-.26-1a2.59,2.59,0,0,1,.52-1.74,1.39,1.39,0,0,1,.7-.52h0c.08,0,.08-.08.17-.08h.09c.17-.09.08,0,.26-.09h0A1.91,1.91,0,0,1,10.12,26.24Z"/><path class="cls-4" d="M9.68,27.29c-.09-.09-.17-.18-.17-.26s0-.27.17-.35.18-.09.18-.18-.35-.17-.7.09a.82.82,0,0,0,.09,1.13c.43.44,1,.52,1.13,1v.53a1.15,1.15,0,0,1-1.48.86H8.64c-.09.09.26.53.95.44a1.63,1.63,0,0,0,1.48-2C11,27.72,10,27.55,9.68,27.29Z"/><path class="cls-4" d="M31.19,21.33c.06-.33.29-.57.53-.53a.54.54,0,0,1,.33.67c0,.33-.28.57-.52.53S31.14,21.67,31.19,21.33Z"/><path class="cls-4" d="M29,21.75a.63.63,0,0,1,.86-.12.62.62,0,0,1,.36.79A.72.72,0,0,1,29,21.75Z"/><polygon class="cls-4" points="19.5 3.48 18.98 1.74 18.72 2.61 18.89 3.3 19.5 3.48"/><path class="cls-4" d="M21.5,3.91l-.95-.78.34,1.21A4,4,0,0,1,21.5,3.91Z"/><path class="cls-4" d="M31.67,19.73c0-1.22-.7-2.52-1.22-2.35-.35.09-.35.61-.35.95a2.35,2.35,0,0,0,.18,1.14A3.51,3.51,0,0,1,31.67,19.73Z"/><path class="cls-4" d="M20.46,4.61l-2-.61,1.3,1.13C20,5,20.2,4.78,20.46,4.61Z"/><path class="cls-4" d="M25.59,21.2c.43.18.69.26.69.18a.41.41,0,0,0-.09-.26,2.06,2.06,0,0,0-1.13-.79,2.87,2.87,0,0,0-2.86.53c-.44.34-.61.69-.44.69s.35-.09.7-.17A3.38,3.38,0,0,1,25.59,21.2Z"/><path class="cls-4" d="M26.11,22.33c.08-.17-.52-.61-1.48-.52-.09,0-.17.09-.35.09h-.09a2.08,2.08,0,0,0-.6.35c-.18.17-.26.34-.18.43s.18,0,.44-.09a5.08,5.08,0,0,1,1.82-.26Z"/><path class="cls-4" d="M10.12,26.24c.26.35.17.52.26.61a.11.11,0,0,0,.17,0c.17-.09.17-.26.17-.43a1.59,1.59,0,0,0-.43-1,2.47,2.47,0,0,0-1.39-.79,2,2,0,0,0-1.13.09.31.31,0,0,0-.26.09A2.78,2.78,0,0,0,5.77,28a3.13,3.13,0,0,0,.44,1c.26.35.6.26.43,0,0-.09-.17-.44-.26-1a2.59,2.59,0,0,1,.52-1.74,1.39,1.39,0,0,1,.7-.52c.08,0,.08-.08.17-.08h.09c.17-.09.08,0,.26-.09A1.91,1.91,0,0,1,10.12,26.24Z"/><path class="cls-4" d="M9.68,27.29c-.09-.09-.17-.18-.17-.26s0-.27.17-.35.18-.09.18-.18-.35-.17-.7.09a.82.82,0,0,0,.09,1.13c.43.44,1,.52,1.13,1v.53a1.15,1.15,0,0,1-1.48.86H8.64c-.09.09.26.53.95.44a1.63,1.63,0,0,0,1.48-2C11,27.72,10,27.55,9.68,27.29Z"/><path class="cls-4" d="M31.19,21.33c-.05.34.1.64.34.67s.47-.2.52-.53a.54.54,0,0,0-.33-.67C31.48,20.76,31.25,21,31.19,21.33Z"/><path class="cls-4" d="M29.33,22.55a.63.63,0,0,0,.86-.13.62.62,0,0,0-.36-.79.55.55,0,1,0-.5.92Z"/></g></g></svg>